# xmcd
#
# Track frame offsets:
#	175
#	15650
#	41512
#	68625
#	84800
#	111162
#	116525
#	136475
#	164300
#	199112
#	221600
#	238325
#	254950
#	279025
#	298762
#
# Disc length: 4424 seconds
#
# Revision: 2
# Processed by: cddbd v1.4PL0 Copyright (c) Steve Scherf et al.
# Submitted via: EZCDDA 4.3.2
#
DISCID=db11460f
DTITLE=Gary Moore - Greatest Hits
DYEAR=1900
DGENRE=
TTITLE0=Parisenne Walkways
TTITLE1=Castles
TTITLE2=I Look At You
TTITLE3=Don't Let Me Be Misunderstood
TTITLE4=The Hurt Inside
TTITLE5=Dirty Fingers
TTITLE6=Oh Pretty Woman
TTITLE7=Still Got The Blues
TTITLE8=As The Years Go Passing By
TTITLE9=Midnight Blues
TTITLE10=All Your Love
TTITLE11=Waiting In The Wings
TTITLE12=Where In The World
TTITLE13=Glory Days
TTITLE14=Parisenne Walkways (Live)
EXTD=
EXTT0=
EXTT1=
EXTT2=
EXTT3=
EXTT4=
EXTT5=
EXTT6=
EXTT7=
EXTT8=
EXTT9=
EXTT10=
EXTT11=
EXTT12=
EXTT13=
EXTT14=
PLAYORDER=
